<?xml version="1.0" encoding="UTF-8" standalone="no"?>
<svg
   xmlns:dc="http://purl.org/dc/elements/1.1/"
   xmlns:cc="http://creativecommons.org/ns#"
   xmlns:rdf="http://www.w3.org/1999/02/22-rdf-syntax-ns#"
   xmlns:svg="http://www.w3.org/2000/svg"
   xmlns="http://www.w3.org/2000/svg"
   width="210mm"
   height="297mm"
   viewBox="0 0 210 297"
   version="1.1"
   id="svg8">
  <defs
     id="defs2" />
  <metadata
     id="metadata5">
    <rdf:RDF>
      <cc:Work
         rdf:about="">
        <dc:format>image/svg+xml</dc:format>
        <dc:type
           rdf:resource="http://purl.org/dc/dcmitype/StillImage" />
        <dc:title></dc:title>
      </cc:Work>
    </rdf:RDF>
  </metadata>
  <g
     id="layer1">
    <text
       xml:space="preserve"
       style="font-style:normal;font-weight:normal;font-size:25.4px;line-height:5.95;font-family:sans-serif;fill:#ff0000;fill-opacity:1;stroke:none;stroke-width:0.264583"
       x="27.467268"
       y="118.60841"
       id="text12"><tspan
         id="tspan10"
         x="27.467268"
         y="118.60841"
         style="font-size:25.4px;fill:#ff0000;stroke-width:0.264583">Акция</tspan></text>
    <path
       style="fill:#ff0000;stroke-width:0.264583"
       id="path22"
       d="m 43.718146,73.951959 c 0.653449,-0.892104 1.271643,-1.811137 1.960348,-2.676313 C 52.485308,62.72467 60.065485,54.73887 67.56352,46.805609 80.335063,33.292743 81.704081,32.071167 95.04152,18.600875 c 17.26534,-16.9849468 8.92407,-8.8767902 25.00175,-24.3471542 0,0 -7.61566,3.1435771 -7.61566,3.1435771 v 0 C 97.029258,12.641651 105.08145,4.6420828 88.279437,21.404451 75.147997,34.580486 61.96354,47.701948 49.117464,61.15808 c -3.654256,3.827795 -9.50485,9.944877 -13.200674,14.326181 -0.834969,0.989836 -1.567511,2.061724 -2.351267,3.092583 0,0 10.152623,-4.624885 10.152623,-4.624885 z" />
    <path
       style="fill:#ff0000;stroke-width:0.264583"
       id="path24"
       d="M 70.056517,62.427823 C 91.093175,44.821403 111.97673,27.032632 133.00874,9.4202508 c 11.26194,-9.35990548 5.97305,-4.9965927 15.85531,-13.10369 0,0 -8.93904,3.61015321 -8.93904,3.61015321 v 0 C 130.73938,7.7746325 135.67933,3.5464138 125.10891,12.61577 103.66681,30.953413 82.26096,49.364966 59.88065,66.559942 c 0,0 10.175867,-4.132119 10.175867,-4.132119 z" />
    <path
       style="fill:#ff0000;stroke-width:0.264583"
       id="path26"
       d="m 95.984659,80.088146 c 0.469533,-0.406238 0.921364,-0.83389 1.4086,-1.218715 4.553841,-3.596709 7.730291,-5.850404 12.650151,-9.438847 5.24851,-3.828161 13.91229,-10.110443 19.09026,-13.868127 0,0 -8.29631,3.282789 -8.29631,3.282789 v 0 c -8.3315,6.00865 -11.26696,8.141758 -19.53369,14.041905 -3.890314,2.776604 -9.990883,7.049482 -14.060143,10.080702 -0.570293,0.424815 -1.10481,0.895662 -1.657215,1.343493 0,0 10.398347,-4.2232 10.398347,-4.2232 z" />
    <path
       style="fill:#ff0000;stroke-width:0.264583"
       id="path28"
       d="m 81.28079,146.80143 c 25.99424,6.13458 51.13029,15.36704 75.96393,25.08532 3.30197,1.36011 12.08833,4.76176 15.78659,6.94615 0.96379,0.56927 1.69935,1.45741 2.54902,2.18612 0,0 8.97645,-5.70415 8.97645,-5.70415 v 0 c -1.08659,-0.66049 -2.10649,-1.44588 -3.25978,-1.98146 -3.3091,-1.53671 -14.34991,-5.43497 -16.80349,-6.32545 -14.23504,-5.12349 -28.4633,-10.27288 -42.73017,-15.3071 -8.77325,-3.09574 -16.43743,-5.64514 -25.092436,-8.79134 -2.092508,-0.76066 -4.162094,-1.58295 -6.24314,-2.37442 0,0 -9.146974,6.26633 -9.146974,6.26633 z" />
    <path
       style="fill:#ff0000;stroke-width:0.264583"
       id="path30"
       d="m 83.648231,174.47061 c 24.500069,10.28528 48.673089,21.31286 72.567719,32.93054 9.90231,4.91759 19.67009,10.09508 29.41117,15.32192 0,0 7.93608,-5.20785 7.93608,-5.20785 v 0 c -10.05774,-4.97591 -20.11353,-9.95636 -30.23021,-14.81188 -23.66752,-11.29529 -47.71157,-21.83487 -70.950746,-34.0062 0,0 -8.734013,5.77347 -8.734013,5.77347 z" />
    <path
       style="fill:#ff0000;stroke-width:0.264583"
       id="path32"
       d="m 37.665805,189.4027 c 3.404603,1.48866 4.170386,1.86237 8.285199,3.39846 18.512105,6.9107 1.323695,0.12706 22.746401,8.41215 15.164282,5.86469 15.740462,6.25617 31.620435,12.94324 22.81723,10.00054 45.50153,20.37587 67.57043,31.95278 4.44012,2.3292 8.81157,4.78706 13.21736,7.18058 0,0 6.99132,-4.57789 6.99132,-4.57789 v 0 c -10.11936,-5.19243 -18.77517,-9.70684 -29.08533,-14.67575 -17.29218,-8.33384 -34.86239,-16.08726 -52.28259,-24.14524 -5.56235,-2.52807 -11.092226,-5.12885 -16.687055,-7.58422 -14.3456,-6.29577 -29.217733,-11.53634 -43.042654,-18.95849 0,0 -9.333516,6.05438 -9.333516,6.05438 z" />
  </g>
</svg>
